<?xml version="1.0" encoding="iso-8859-1"?>
<!-- Generator: Adobe Illustrator 19.0.0, SVG Export Plug-In . SVG Version: 6.00 Build 0)  -->
<svg version="1.1" id="Capa_1" xmlns="http://www.w3.org/2000/svg" xmlns:xlink="http://www.w3.org/1999/xlink" x="0px" y="0px"
	 viewBox="0 0 512 512" style="enable-background:new 0 0 512 512;" xml:space="preserve">
<circle style="fill:#F2F2F2;" cx="256" cy="256" r="256"/>
<path style="fill:#E24B4B;" d="M440.512,78.48c-51.136,53.472-129.2,106.8-129.2,106.8s-3.44-94.704-52.384-185.264
	C330.192,0.8,394.528,30.768,440.512,78.48z"/>
<path style="fill:#FFD83B;" d="M511.632,270.528c-5.456,97.664-65.728,180.816-150.512,218.992
	c6.016-149.504-49.808-293.936-49.808-293.936S414.736,173.568,511.632,270.528z"/>
<path style="fill:#6DAFDF;" d="M311.296,195.584c-78.928,140.528-159.968,216.72-218.832,257.392
	C36.032,405.984,0.032,335.168,0.032,256c0-36.144,7.488-70.496,21.072-101.648C199.424,117.584,311.296,195.584,311.296,195.584z"
	/>
<circle style="fill:#FFFFFF;" cx="311.296" cy="195.536" r="40.304"/>
<circle style="fill:#CBD6E0;" cx="311.296" cy="195.536" r="26.256"/>
<path style="opacity:0.05;fill:#3F4347;enable-background:new    ;" d="M74.992,437.024C121.312,483.344,185.312,512,256,512
	c141.392,0,256-114.608,256-256c0-70.688-28.656-134.688-74.976-181.008c10.688,29.776,16.64,61.808,16.64,95.264
	c0,156.528-126.896,283.424-283.424,283.424C136.8,453.68,104.768,447.712,74.992,437.024z"/>
<g style="opacity:0.1;">
	<path style="fill:#FFFFFF;" d="M0,256c0,39.424,9.168,76.624,25.088,109.984c105.488-13.008,214.736-122.32,250.768-255.264
		c10.56-38.944,13.504-75.728,10.24-108.784C276.208,0.752,266.208,0,256,0C114.608,0,0,114.608,0,256z"/>
</g>
<g style="opacity:0.2;">
	
		<ellipse transform="matrix(-0.847 -0.5315 0.5315 -0.847 162.1989 335.5471)" style="fill:#FFFFFF;" cx="129.38" cy="144.435" rx="55.501" ry="93.419"/>
</g>
<g>
</g>
<g>
</g>
<g>
</g>
<g>
</g>
<g>
</g>
<g>
</g>
<g>
</g>
<g>
</g>
<g>
</g>
<g>
</g>
<g>
</g>
<g>
</g>
<g>
</g>
<g>
</g>
<g>
</g>
</svg>
